<svg width="18" height="18" viewBox="0 0 18 18" fill="none" xmlns="http://www.w3.org/2000/svg">
<path fill-rule="evenodd" clip-rule="evenodd" d="M12.6086 0.304969C10.9986 0.229865 7.01076 0.233511 5.3993 0.304969C3.98326 0.371324 2.7342 0.713303 1.72722 1.72028C0.221261 3.22624 0.235153 5.20047 0.254726 7.98207C0.257026 8.30892 0.259404 8.64693 0.259404 8.99664C0.259404 9.32394 0.257651 9.64025 0.255956 9.94614C0.240022 12.8213 0.229194 14.775 1.72722 16.273C3.23593 17.7811 5.23193 17.7662 7.9821 17.7458C8.31161 17.7433 8.65195 17.7408 9.00357 17.7408H9.05107C12.3862 17.7408 13.5446 17.7408 14.7312 17.2814C16.3521 16.6522 17.5757 15.2033 17.6952 12.6009C17.7711 10.9902 17.7667 7.0031 17.6952 5.39164C17.5509 2.31966 15.9022 0.456636 12.6086 0.304969ZM15.157 15.1596C14.141 16.1756 12.7626 16.1724 9.78525 16.1656C9.52968 16.165 9.26234 16.1643 8.98243 16.1643L8.48162 16.1646C5.19975 16.1669 3.82437 16.1679 2.80784 15.1486C1.7503 14.0961 1.76779 12.4947 1.79317 10.1706C1.79728 9.79455 1.80159 9.39959 1.80159 8.98497C1.80159 8.63337 1.79844 8.29035 1.79538 7.95696C1.76337 4.47041 1.74103 2.0369 5.43139 1.84789L5.47323 1.84641C6.36912 1.81474 6.66926 1.80414 8.97222 1.80414L9.00503 1.82601C9.33799 1.82601 9.6648 1.82302 9.98418 1.8201C13.3922 1.78895 15.9551 1.76552 16.1224 5.46164C16.164 6.38403 16.1735 6.66112 16.1735 8.99591C16.1734 9.20575 16.1736 9.40836 16.1738 9.60408V9.60439C16.1768 12.7695 16.1781 14.1337 15.157 15.1596ZM9.00398 4.50551C6.52263 4.50551 4.51378 6.51655 4.51378 8.99572C4.51378 11.4771 6.52482 13.4859 9.00398 13.4859C11.4853 13.4859 13.4942 11.4749 13.4942 8.99572C13.4942 6.51436 11.4832 4.50551 9.00398 4.50551ZM9.00398 11.9102C7.39326 11.9102 6.08951 10.6057 6.08951 8.99572C6.08951 7.38572 7.39398 6.08124 9.00398 6.08124C10.614 6.08124 11.9185 7.38572 11.9185 8.99572C11.9192 10.6057 10.6147 11.9102 9.00398 11.9102ZM14.7211 4.32832C14.7211 4.90781 14.2514 5.37759 13.6719 5.37759C13.0924 5.37759 12.6226 4.90781 12.6226 4.32832C12.6226 3.74882 13.0924 3.27905 13.6719 3.27905C14.2514 3.27905 14.7211 3.74882 14.7211 4.32832Z" fill="white"/>
</svg>
