<svg width="36" height="36" viewBox="0 0 36 36" fill="none" xmlns="http://www.w3.org/2000/svg">
<path fill-rule="evenodd" clip-rule="evenodd" d="M0.831055 17.6362C0.831055 7.95313 8.68043 0.10376 18.3635 0.10376C28.0466 0.10376 35.896 7.95313 35.896 17.6362C35.896 27.3193 28.0466 35.1687 18.3635 35.1687C8.68043 35.1687 0.831055 27.3193 0.831055 17.6362ZM2.30372 17.6362C2.30372 26.5056 9.49413 33.696 18.3635 33.696C27.2329 33.696 34.4233 26.5056 34.4233 17.6362C34.4233 8.76684 27.2329 1.57643 18.3635 1.57643C9.49413 1.57643 2.30372 8.76684 2.30372 17.6362ZM24.7778 6.2272C25.1095 6.16577 25.4646 6.11526 25.5671 6.11526C25.9069 6.11462 26.1567 6.30553 26.2537 6.64004C26.2845 6.74684 26.2772 20.837 26.2757 23.1611C26.2755 23.3757 26.246 23.5885 26.188 23.7952C25.8903 24.8533 25.1637 25.6024 24.1344 25.9114C23.4072 26.1297 22.344 26.2108 21.822 26.0878C21.3573 25.9784 21.0205 25.7841 20.6521 25.4134C20.116 24.8743 19.8782 24.3232 19.8772 23.6182C19.8765 23.224 19.9465 22.9269 20.1331 22.531C20.3972 21.9711 20.739 21.6338 21.3548 21.3261C21.8474 21.0797 22.2881 20.9522 23.5754 20.6834C24.4212 20.5064 24.7643 20.4308 24.9291 20.2348C25.156 19.9655 24.9882 11.8824 24.9205 11.7795C24.8204 11.6267 24.6121 11.5481 24.3917 11.5794C24.1576 11.6128 15.8337 13.2971 15.6261 13.3532C15.3956 13.4153 15.2282 13.5987 15.1747 13.8489C15.1664 13.8875 15.1598 14.7193 15.15 15.9381C15.1226 19.3741 15.0705 25.8855 14.8877 26.3711C14.8171 26.5588 14.6904 26.8176 14.6063 26.946C14.3936 27.2704 13.9848 27.6651 13.6674 27.8532C12.907 28.3029 11.4208 28.5342 10.6268 28.3264C9.78572 28.106 9.16121 27.5333 8.87956 26.7253C8.74473 26.3382 8.71284 25.7013 8.80744 25.2756C8.90653 24.8304 9.13574 24.406 9.44521 24.0953C9.99032 23.5476 10.6345 23.2931 12.3687 22.94C12.743 22.8638 13.1293 22.775 13.2269 22.7429C13.433 22.6752 13.6567 22.4631 13.7573 22.2388C13.8236 22.0918 13.8664 9.01309 13.8664 9.01309L13.9574 8.82818C14.0646 8.61009 14.2908 8.40506 14.5194 8.31859C14.6671 8.26252 23.3113 6.50071 24.7778 6.2272Z" fill="white"/>
</svg>
