<svg width="180" height="54" viewBox="0 0 180 54" fill="none" xmlns="http://www.w3.org/2000/svg">
<path d="M62.8051 14.1722L68.2317 21.3164H66.2036L61.6906 15.5061L59.5345 18.2102V21.3164H57.8718V8.52637H59.5345V15.7619L65.0342 8.52637H67.0806L62.8051 14.1722Z" fill="white"/>
<path d="M84.2544 16.2552C84.2544 17.9605 83.822 19.27 82.9571 20.1836C82.0923 21.0971 80.8559 21.5539 79.248 21.5539C77.6401 21.5539 76.3977 21.0971 75.5206 20.1836C74.6558 19.27 74.2234 17.9605 74.2234 16.2552V8.52637H75.8861V16.2552C75.8861 18.7523 77.0067 20.0008 79.248 20.0008C80.3443 20.0008 81.1726 19.6841 81.7329 19.0507C82.3054 18.4173 82.5917 17.4855 82.5917 16.2552V8.52637H84.2544V16.2552Z" fill="white"/>
<path d="M100.8 10.0794H96.2683V21.3164H94.6056V10.0794H90.0743V8.52637H100.8V10.0794Z" fill="white"/>
<path d="M113.835 10.0794H108.463V13.953H113.195V15.5061H108.463V19.7633H113.835V21.3164H106.8V8.52637H113.835V10.0794Z" fill="white"/>
<path d="M61.3251 32.8883C62.5554 32.8883 63.5299 33.205 64.2486 33.8384C64.9672 34.4596 65.3266 35.3001 65.3266 36.3599C65.3266 37.4927 64.8698 38.3636 63.9562 38.9727C64.6384 39.2163 65.1682 39.6061 65.5458 40.1421C65.9235 40.678 66.1123 41.3053 66.1123 42.024C66.1123 42.7549 65.9356 43.4005 65.5824 43.9608C65.2413 44.5089 64.7541 44.9353 64.1207 45.2398C63.4873 45.5321 62.7442 45.6783 61.8916 45.6783H57.7622V32.8883H61.3251ZM59.4249 38.388H61.3982C62.0804 38.388 62.6224 38.2114 63.0244 37.8581C63.4385 37.5049 63.6456 37.0359 63.6456 36.4512C63.6456 35.8056 63.4385 35.3123 63.0244 34.9712C62.6224 34.618 62.056 34.4414 61.3251 34.4414H59.4249V38.388ZM59.4249 44.1252H61.8916C62.6711 44.1252 63.2863 43.9364 63.737 43.5588C64.1877 43.1812 64.413 42.6574 64.413 41.9875C64.413 41.3419 64.1877 40.8364 63.737 40.471C63.2985 40.1055 62.6833 39.9228 61.8916 39.9228H59.4249V44.1252Z" fill="white"/>
<path d="M74.2301 44.1252H79.9308V45.6783H72.5674V32.8883H74.2301V44.1252Z" fill="white"/>
<path d="M97.0498 45.6783H95.2227L93.8706 42.2981H88.2247L86.8909 45.6783H85.0637L90.198 32.8883H91.9155L97.0498 45.6783ZM90.801 35.7204L88.7911 40.745H93.3042L91.276 35.7204L91.0385 35.0261L90.801 35.7204Z" fill="white"/>
<path d="M108.217 32.6508C109.679 32.6508 110.897 33.004 111.871 33.7105C112.858 34.417 113.534 35.4098 113.899 36.6888H112.054C111.457 35.0322 110.178 34.2038 108.217 34.2038C106.865 34.2038 105.762 34.685 104.91 35.6473C104.057 36.5852 103.631 37.7972 103.631 39.2833C103.631 40.745 104.057 41.957 104.91 42.9193C105.762 43.8816 106.871 44.3628 108.235 44.3628C109.222 44.3628 110.05 44.1374 110.72 43.6867C111.39 43.236 111.859 42.6148 112.127 41.823H113.918C113.552 43.1386 112.882 44.1496 111.908 44.8561C110.933 45.5626 109.709 45.9158 108.235 45.9158C106.372 45.9158 104.849 45.2885 103.667 44.0339C102.486 42.7792 101.895 41.1957 101.895 39.2833C101.895 37.3709 102.486 35.7874 103.667 34.5327C104.849 33.2781 106.365 32.6508 108.217 32.6508Z" fill="white"/>
<path d="M125.311 38.5342L130.737 45.6783H128.709L124.196 39.868L122.04 42.5722V45.6783H120.377V32.8883H122.04V40.1238L127.54 32.8883H129.586L125.311 38.5342Z" fill="white"/>
<path d="M140.273 32.6508C141.419 32.6508 142.32 32.9675 142.978 33.6009C143.648 34.2221 143.995 35.1113 144.019 36.2685H142.338C142.326 35.6107 142.131 35.0931 141.753 34.7154C141.376 34.3378 140.87 34.149 140.237 34.149C139.628 34.149 139.147 34.3196 138.794 34.6606C138.44 35.0017 138.264 35.4768 138.264 36.0858C138.264 36.6583 138.44 37.1029 138.794 37.4196C139.171 37.7241 139.841 38.0652 140.803 38.4428C142.131 38.9422 143.063 39.4599 143.599 39.9959C144.147 40.544 144.421 41.281 144.421 42.2067C144.421 43.3396 144.056 44.241 143.325 44.9109C142.606 45.5809 141.65 45.9158 140.456 45.9158C139.153 45.9158 138.124 45.5565 137.368 44.8378C136.625 44.1192 136.242 43.1447 136.217 41.9144H137.898C137.91 42.7183 138.142 43.3396 138.593 43.7781C139.043 44.2166 139.671 44.4359 140.474 44.4359C141.193 44.4359 141.747 44.2471 142.137 43.8694C142.539 43.4797 142.74 42.962 142.74 42.3164C142.74 41.7804 142.539 41.3419 142.137 41.0008C141.735 40.6476 141.041 40.3004 140.054 39.9594C138.873 39.5208 137.996 39.0336 137.423 38.4976C136.863 37.9495 136.583 37.1882 136.583 36.2137C136.583 35.1905 136.905 34.3378 137.551 33.6557C138.209 32.9858 139.116 32.6508 140.273 32.6508Z" fill="white"/>
<path d="M156.778 32.6508C158.679 32.6508 160.238 33.2781 161.456 34.5327C162.686 35.7996 163.301 37.377 163.301 39.265C163.301 41.1774 162.686 42.7671 161.456 44.0339C160.238 45.2885 158.679 45.9158 156.778 45.9158C154.866 45.9158 153.301 45.2885 152.083 44.0339C150.852 42.7671 150.237 41.1774 150.237 39.265C150.237 37.377 150.852 35.7996 152.083 34.5327C153.301 33.2781 154.866 32.6508 156.778 32.6508ZM156.778 34.2038C155.353 34.2038 154.196 34.685 153.307 35.6473C152.418 36.5852 151.973 37.7911 151.973 39.265C151.973 40.7389 152.418 41.957 153.307 42.9193C154.196 43.8816 155.353 44.3628 156.778 44.3628C158.179 44.3628 159.324 43.8816 160.214 42.9193C161.115 41.9449 161.566 40.7268 161.566 39.265C161.566 37.8155 161.115 36.6096 160.214 35.6473C159.324 34.685 158.179 34.2038 156.778 34.2038Z" fill="white"/>
<path d="M180 45.6783H178.356L171.997 36.506L171.504 35.7204V45.6783H169.841V32.8883H171.467L177.789 42.024L178.337 42.8645V32.8883H180V45.6783Z" fill="white"/>
<path d="M15.8463 27.3173L7.45823 38.2601V53.6237H0V0H7.47801V26.9803L15.2923 16.5331L27.637 0H36.7768L20.7723 20.8944L38.4386 53.6435H29.6351L15.8463 27.3173Z" fill="url(#paint0_linear)"/>
<defs>
<linearGradient id="paint0_linear" x1="-0.0555016" y1="23.6961" x2="40.7158" y2="22.3022" gradientUnits="userSpaceOnUse">
<stop stop-color="#DC4F70"/>
<stop offset="0.405893" stop-color="#E7CB69"/>
<stop offset="0.950075" stop-color="#57CFFF"/>
</linearGradient>
</defs>
</svg>
