<svg width="180" height="54" viewBox="0 0 180 54" fill="none" xmlns="http://www.w3.org/2000/svg">
<path d="M59.0703 17.308L62.6343 22H61.3023L58.3383 18.184L56.9223 19.96V22H55.8303V13.6H56.9223V18.352L60.5343 13.6H61.8783L59.0703 17.308ZM73.1573 18.676C73.1573 19.796 72.8733 20.656 72.3053 21.256C71.7373 21.856 70.9253 22.156 69.8693 22.156C68.8133 22.156 67.9973 21.856 67.4213 21.256C66.8533 20.656 66.5693 19.796 66.5693 18.676V13.6H67.6613V18.676C67.6613 20.316 68.3973 21.136 69.8693 21.136C70.5893 21.136 71.1333 20.928 71.5013 20.512C71.8773 20.096 72.0653 19.484 72.0653 18.676V13.6H73.1573V18.676ZM84.0236 14.62H81.0476V22H79.9556V14.62H76.9796V13.6H84.0236V14.62ZM92.5847 14.62H89.0567V17.164H92.1647V18.184H89.0567V20.98H92.5847V22H87.9647V13.6H92.5847V14.62ZM58.0983 29.6C58.9063 29.6 59.5463 29.808 60.0183 30.224C60.4903 30.632 60.7263 31.184 60.7263 31.88C60.7263 32.624 60.4263 33.196 59.8263 33.596C60.2743 33.756 60.6223 34.012 60.8703 34.364C61.1183 34.716 61.2423 35.128 61.2423 35.6C61.2423 36.08 61.1263 36.504 60.8943 36.872C60.6703 37.232 60.3503 37.512 59.9343 37.712C59.5183 37.904 59.0303 38 58.4703 38H55.7583V29.6H58.0983ZM56.8503 33.212H58.1463C58.5943 33.212 58.9503 33.096 59.2143 32.864C59.4863 32.632 59.6223 32.324 59.6223 31.94C59.6223 31.516 59.4863 31.192 59.2143 30.968C58.9503 30.736 58.5783 30.62 58.0983 30.62H56.8503V33.212ZM56.8503 36.98H58.4703C58.9823 36.98 59.3863 36.856 59.6823 36.608C59.9783 36.36 60.1263 36.016 60.1263 35.576C60.1263 35.152 59.9783 34.82 59.6823 34.58C59.3943 34.34 58.9903 34.22 58.4703 34.22H56.8503V36.98ZM66.5737 36.98H70.3177V38H65.4817V29.6H66.5737V36.98ZM81.5609 38H80.3609L79.4729 35.78H75.7649L74.8889 38H73.6889L77.0609 29.6H78.1889L81.5609 38ZM77.4569 31.46L76.1369 34.76H79.1009L77.7689 31.46L77.6129 31.004L77.4569 31.46ZM88.895 29.444C89.855 29.444 90.655 29.676 91.295 30.14C91.943 30.604 92.387 31.256 92.627 32.096H91.415C91.023 31.008 90.183 30.464 88.895 30.464C88.007 30.464 87.283 30.78 86.723 31.412C86.163 32.028 85.883 32.824 85.883 33.8C85.883 34.76 86.163 35.556 86.723 36.188C87.283 36.82 88.011 37.136 88.907 37.136C89.555 37.136 90.099 36.988 90.539 36.692C90.979 36.396 91.287 35.988 91.463 35.468H92.639C92.399 36.332 91.959 36.996 91.319 37.46C90.679 37.924 89.875 38.156 88.907 38.156C87.683 38.156 86.683 37.744 85.907 36.92C85.131 36.096 84.743 35.056 84.743 33.8C84.743 32.544 85.131 31.504 85.907 30.68C86.683 29.856 87.679 29.444 88.895 29.444ZM100.122 33.308L103.686 38H102.354L99.3895 34.184L97.9735 35.96V38H96.8815V29.6H97.9735V34.352L101.586 29.6H102.93L100.122 33.308ZM109.949 29.444C110.701 29.444 111.293 29.652 111.725 30.068C112.165 30.476 112.393 31.06 112.409 31.82H111.305C111.297 31.388 111.169 31.048 110.921 30.8C110.673 30.552 110.341 30.428 109.925 30.428C109.525 30.428 109.209 30.54 108.977 30.764C108.745 30.988 108.629 31.3 108.629 31.7C108.629 32.076 108.745 32.368 108.977 32.576C109.225 32.776 109.665 33 110.297 33.248C111.169 33.576 111.781 33.916 112.133 34.268C112.493 34.628 112.673 35.112 112.673 35.72C112.673 36.464 112.433 37.056 111.953 37.496C111.481 37.936 110.853 38.156 110.069 38.156C109.213 38.156 108.537 37.92 108.041 37.448C107.553 36.976 107.301 36.336 107.285 35.528H108.389C108.397 36.056 108.549 36.464 108.845 36.752C109.141 37.04 109.553 37.184 110.081 37.184C110.553 37.184 110.917 37.06 111.173 36.812C111.437 36.556 111.569 36.216 111.569 35.792C111.569 35.44 111.437 35.152 111.173 34.928C110.909 34.696 110.453 34.468 109.805 34.244C109.029 33.956 108.453 33.636 108.077 33.284C107.709 32.924 107.525 32.424 107.525 31.784C107.525 31.112 107.737 30.552 108.161 30.104C108.593 29.664 109.189 29.444 109.949 29.444ZM120.788 29.444C122.036 29.444 123.06 29.856 123.86 30.68C124.668 31.512 125.072 32.548 125.072 33.788C125.072 35.044 124.668 36.088 123.86 36.92C123.06 37.744 122.036 38.156 120.788 38.156C119.532 38.156 118.504 37.744 117.704 36.92C116.896 36.088 116.492 35.044 116.492 33.788C116.492 32.548 116.896 31.512 117.704 30.68C118.504 29.856 119.532 29.444 120.788 29.444ZM120.788 30.464C119.852 30.464 119.092 30.78 118.508 31.412C117.924 32.028 117.632 32.82 117.632 33.788C117.632 34.756 117.924 35.556 118.508 36.188C119.092 36.82 119.852 37.136 120.788 37.136C121.708 37.136 122.46 36.82 123.044 36.188C123.636 35.548 123.932 34.748 123.932 33.788C123.932 32.836 123.636 32.044 123.044 31.412C122.46 30.78 121.708 30.464 120.788 30.464ZM136.039 38H134.959L130.783 31.976L130.459 31.46V38H129.367V29.6H130.435L134.587 35.6L134.947 36.152V29.6H136.039V38Z" fill="black"/>
<path d="M16.3041 27.5103L8.10897 38.2015V53.2117H0.822266V0.821228H8.1283V27.1811L15.7629 16.9741L27.8237 0.821228H36.7533L21.1168 21.2351L38.3768 53.231H29.7758L16.3041 27.5103Z" fill="url(#paint0_linear)"/>
<defs>
<linearGradient id="paint0_linear" x1="0.76804" y1="23.9724" x2="40.6016" y2="22.6105" gradientUnits="userSpaceOnUse">
<stop stop-color="#DC4F70"/>
<stop offset="0.405893" stop-color="#E7CB69"/>
<stop offset="0.950075" stop-color="#57CFFF"/>
</linearGradient>
</defs>
</svg>
