<svg width="38" height="21" viewBox="0 0 38 21" fill="none" xmlns="http://www.w3.org/2000/svg">
<path fill-rule="evenodd" clip-rule="evenodd" d="M31.3816 9.31016C30.9766 9.31016 30.5784 9.35339 30.1962 9.4353C29.6843 4.26383 25.3091 0.209473 20.0057 0.209473C19.3777 0.209473 18.8681 0.719111 18.8681 1.34706V19.5484C18.8681 20.1764 19.3777 20.686 20.0057 20.686H31.3816C34.519 20.686 37.0695 18.1356 37.0695 14.9981C37.0695 11.8629 34.519 9.31016 31.3816 9.31016ZM15.4554 2.48466C14.8275 2.48466 14.3178 2.9943 14.3178 3.62225V19.5485C14.3178 20.1764 14.8275 20.686 15.4554 20.686C16.0834 20.686 16.593 20.1764 16.593 19.5485V3.62225C16.593 2.9943 16.0834 2.48466 15.4554 2.48466ZM9.76733 8.17275C9.76733 7.5448 10.277 7.03516 10.9049 7.03516C11.5329 7.03516 12.0425 7.5448 12.0425 8.17275V19.5486C12.0425 20.1766 11.5329 20.6862 10.9049 20.6862C10.277 20.6862 9.76733 20.1766 9.76733 19.5486V8.17275ZM6.35467 7.03516C5.72673 7.03516 5.21709 7.5448 5.21709 8.17275V19.5486C5.21709 20.1766 5.72673 20.6862 6.35467 20.6862C6.98262 20.6862 7.49226 20.1766 7.49226 19.5486V8.17275C7.49226 7.5448 6.98262 7.03516 6.35467 7.03516ZM0.666748 11.5853C0.666748 10.9574 1.17639 10.4477 1.80433 10.4477C2.43228 10.4477 2.94192 10.9574 2.94192 11.5853V18.4109C2.94192 19.0388 2.43228 19.5484 1.80433 19.5484C1.17639 19.5484 0.666748 19.0388 0.666748 18.4109V11.5853Z" fill="url(#paint0_linear)"/>
<defs>
<linearGradient id="paint0_linear" x1="23.0048" y1="-2.6544" x2="21.0105" y2="24.4238" gradientUnits="userSpaceOnUse">
<stop stop-color="#DE5B6F"/>
<stop offset="1" stop-color="#57CFFF"/>
</linearGradient>
</defs>
</svg>
