<svg width="20" height="28" viewBox="0 0 20 28" fill="none" xmlns="http://www.w3.org/2000/svg">
<path d="M10.0504 0.262207C12.6746 0.262207 14.825 1.03265 16.5016 2.57355C18.1782 4.07942 19.0529 6.09309 19.1258 8.61455H14.3147C14.2783 5.84794 12.8204 4.46464 9.94102 4.46464C8.59245 4.46464 7.55369 4.79734 6.82474 5.46272C6.09578 6.09309 5.7313 6.95108 5.7313 8.03671C5.7313 9.08732 6.07756 9.87528 6.77006 10.4006C7.49902 10.9259 8.88403 11.4162 10.9251 11.8714C14.2054 12.6069 16.5198 13.5874 17.8684 14.8131C19.2534 16.0038 19.9459 17.6673 19.9459 19.8035C19.9459 22.29 19.0529 24.2686 17.267 25.7395C15.4811 27.1753 13.1484 27.8932 10.269 27.8932C7.17099 27.8932 4.72899 27.1228 2.94305 25.5819C1.19356 24.041 0.282368 21.9398 0.209473 19.2782H5.02057C5.09347 22.2199 6.87941 23.6908 10.3784 23.6908C11.8727 23.6908 13.0391 23.3756 13.8774 22.7452C14.7157 22.0799 15.1348 21.2043 15.1348 20.1187C15.1348 18.9981 14.7339 18.1401 13.932 17.5447C13.1302 16.9144 11.6176 16.354 9.3943 15.8638C6.40559 15.1984 4.23695 14.2878 2.88838 13.1322C1.57626 11.9765 0.920203 10.3656 0.920203 8.29937C0.920203 6.05807 1.72205 4.16697 3.32575 2.62608C4.9659 1.05016 7.20744 0.262207 10.0504 0.262207Z" fill="white"/>
</svg>
