<svg width="15" height="13" viewBox="0 0 15 13" fill="none" xmlns="http://www.w3.org/2000/svg">
<path d="M14.8646 1.87913C14.3169 2.1194 13.7332 2.27865 13.1247 2.35598C13.7507 1.98224 14.2285 1.39492 14.4531 0.687017C13.8695 1.03499 13.2251 1.28077 12.5384 1.41794C11.9842 0.827862 11.1943 0.462402 10.3327 0.462402C8.66098 0.462402 7.31513 1.8193 7.31513 3.48274C7.31513 3.72208 7.33539 3.95222 7.3851 4.17131C4.87475 4.04888 2.65345 2.84571 1.16124 1.01289C0.900722 1.46488 0.74791 1.98224 0.74791 2.53917C0.74791 3.58492 1.28643 4.51191 2.08916 5.0486C1.60402 5.03939 1.1281 4.89855 0.724896 4.67669C0.724896 4.6859 0.724896 4.69787 0.724896 4.70983C0.724896 6.17719 1.77156 7.39601 3.14411 7.67678C2.89832 7.74398 2.63044 7.77619 2.35243 7.77619C2.15912 7.77619 1.96396 7.76515 1.78077 7.72464C2.17201 8.92044 3.28219 9.79957 4.60227 9.82811C3.57493 10.6318 2.2705 11.116 0.858376 11.116C0.610748 11.116 0.373245 11.1049 0.135742 11.0745C1.47331 11.9371 3.0585 12.4296 4.76796 12.4296C10.3244 12.4296 13.3622 7.82683 13.3622 3.83715C13.3622 3.70367 13.3576 3.57479 13.3512 3.44683C13.9505 3.02154 14.454 2.49038 14.8646 1.87913Z" fill="white"/>
</svg>
