<svg width="20" height="14" viewBox="0 0 20 14" fill="none" xmlns="http://www.w3.org/2000/svg">
<path d="M18.6423 2.48939C18.4343 1.71625 17.8248 1.10679 17.0517 0.898611C15.6395 0.512207 9.9905 0.512207 9.9905 0.512207C9.9905 0.512207 4.34171 0.512207 2.92949 0.883961C2.17133 1.09192 1.54689 1.71636 1.33893 2.48939C0.967285 3.9015 0.967285 6.83004 0.967285 6.83004C0.967285 6.83004 0.967285 9.77334 1.33893 11.1707C1.54711 11.9437 2.15646 12.5532 2.9296 12.7614C4.35658 13.1479 9.99072 13.1479 9.99072 13.1479C9.99072 13.1479 15.6395 13.1479 17.0517 12.7761C17.8249 12.5681 18.4343 11.9586 18.6425 11.1856C19.014 9.77334 19.014 6.84491 19.014 6.84491C19.014 6.84491 19.0289 3.9015 18.6423 2.48939ZM8.19198 9.53553V4.12455L12.8894 6.83004L8.19198 9.53553Z" fill="url(#paint0_linear)"/>
<defs>
<linearGradient id="paint0_linear" x1="12.0415" y1="-1.25502" x2="10.5142" y2="15.4049" gradientUnits="userSpaceOnUse">
<stop stop-color="#DE5B6F"/>
<stop offset="1" stop-color="#57CFFF"/>
</linearGradient>
</defs>
</svg>
