<?xml version="1.0" standalone="no"?>
<!DOCTYPE svg PUBLIC "-//W3C//DTD SVG 20010904//EN"
 "http://www.w3.org/TR/2001/REC-SVG-20010904/DTD/svg10.dtd">
<svg version="1.0" xmlns="http://www.w3.org/2000/svg"
 width="864.000000pt" height="864.000000pt" viewBox="0 0 864.000000 864.000000"
 preserveAspectRatio="xMidYMid meet">
<metadata>
Created by potrace 1.11, written by Peter Selinger 2001-2013
</metadata>
<g transform="translate(0.000000,864.000000) scale(0.100000,-0.100000)"
fill="#000000" stroke="none">
<path d="M1282 4318 l3 -4192 568 0 c313 -1 574 2 580 6 9 5 12 308 13 1190 1
651 2 1190 3 1199 1 13 77 117 149 204 10 11 25 32 34 46 9 14 23 32 30 40 7
8 26 32 43 54 16 22 33 45 37 50 5 6 22 28 39 50 16 22 35 47 42 55 7 8 48 62
92 120 43 58 81 107 84 110 3 3 29 36 56 74 28 37 57 76 65 85 8 9 40 50 70
91 30 41 60 80 65 85 6 6 31 37 56 70 24 33 49 65 54 71 6 6 17 22 25 34 8 12
20 28 25 34 6 6 24 29 40 51 17 22 35 45 40 51 6 6 19 23 30 38 94 130 228
295 235 291 4 -3 22 -33 40 -67 51 -99 147 -283 210 -403 101 -193 161 -307
216 -412 30 -57 78 -149 108 -205 29 -57 76 -146 103 -198 114 -217 268 -512
347 -665 23 -43 47 -85 54 -93 7 -7 10 -17 7 -22 -3 -5 -1 -11 3 -14 5 -3 26
-40 48 -83 21 -43 41 -80 44 -83 3 -3 18 -33 34 -67 16 -35 33 -63 38 -63 4 0
7 -3 6 -7 -2 -8 13 -38 111 -223 28 -52 73 -140 102 -195 28 -55 65 -127 83
-160 31 -58 107 -203 236 -450 35 -66 77 -147 93 -180 17 -33 39 -72 50 -87
10 -16 16 -28 13 -28 -3 0 10 -26 28 -58 18 -32 53 -98 78 -147 25 -50 58
-112 72 -140 l27 -50 689 0 689 -1 -39 71 c-118 217 -140 259 -140 267 0 4 -4
8 -10 8 -5 0 -10 5 -10 12 0 6 -33 72 -74 147 -40 75 -95 177 -121 226 -26 50
-55 104 -65 120 -10 17 -33 59 -52 95 -79 147 -130 242 -163 302 -19 35 -45
83 -57 108 -13 25 -29 51 -36 58 -7 8 -10 18 -7 23 4 5 3 9 -2 9 -4 0 -13 10
-19 23 -5 12 -32 63 -58 112 -53 99 -69 127 -208 385 -52 96 -117 216 -143
265 -26 50 -59 110 -73 135 -14 25 -37 68 -52 95 -25 48 -77 144 -145 270 -18
33 -52 96 -75 140 -23 44 -50 94 -60 110 -9 17 -39 71 -65 120 -27 50 -70 130
-97 179 -26 49 -48 92 -48 96 0 3 -11 21 -25 40 -14 19 -25 42 -25 51 0 10 -4
19 -8 21 -5 2 -35 53 -67 113 -123 234 -173 325 -187 343 -6 6 -7 12 -3 12 5
0 2 8 -6 18 -8 9 -21 31 -30 47 -9 17 -36 66 -60 110 -23 44 -60 112 -81 150
-21 39 -50 93 -64 120 -14 28 -37 73 -52 100 -15 28 -47 86 -71 130 -24 44
-48 86 -54 93 -5 6 -6 12 -2 12 5 0 2 8 -6 18 -8 9 -21 31 -30 47 -9 17 -30
55 -46 85 -17 30 -46 85 -66 122 -20 37 -42 75 -48 86 -10 16 -8 25 12 53 13
19 29 40 36 47 7 7 13 17 13 21 0 5 14 22 30 39 17 18 30 36 30 41 0 5 3 11 8
13 8 3 97 118 124 158 9 14 24 34 35 45 10 11 45 56 78 100 33 44 64 85 70 92
14 17 25 31 60 78 16 22 33 45 37 50 16 20 127 163 208 270 46 61 88 115 93
120 4 6 35 46 68 90 33 44 71 94 84 110 47 61 241 315 260 341 11 15 28 37 37
48 10 12 38 48 63 81 25 33 54 71 65 85 11 14 39 52 64 85 25 33 54 70 65 82
12 12 21 25 21 28 0 4 6 12 13 20 14 15 25 29 112 145 35 47 71 92 80 101 8 9
15 21 15 27 0 7 4 12 9 12 5 0 18 15 30 33 11 17 28 41 38 52 10 11 47 59 83
107 36 49 68 88 73 88 4 0 7 6 7 14 0 8 3 16 8 18 4 2 20 21 37 43 16 22 33
45 37 50 5 6 29 37 54 70 25 33 56 74 69 90 13 17 38 48 54 70 17 22 34 45 39
50 4 6 21 28 37 50 17 22 40 51 53 65 12 14 22 28 22 31 0 3 11 19 25 35 14
16 25 32 25 37 0 4 -319 7 -709 7 l-710 0 -20 -27 c-12 -16 -24 -32 -29 -38
-4 -5 -19 -26 -32 -45 -14 -19 -29 -39 -35 -46 -5 -6 -19 -23 -30 -38 -23 -32
-129 -175 -235 -316 -39 -52 -118 -158 -176 -235 -57 -77 -111 -148 -118 -157
-8 -9 -19 -25 -25 -36 -6 -11 -17 -26 -23 -34 -7 -7 -58 -74 -113 -148 -55
-74 -105 -142 -112 -150 -7 -8 -111 -148 -232 -310 -121 -162 -223 -299 -228
-305 -5 -5 -26 -35 -48 -65 -22 -30 -50 -66 -62 -80 -13 -14 -23 -27 -23 -30
0 -3 -94 -131 -210 -285 -115 -154 -217 -291 -227 -304 -74 -100 -276 -371
-293 -391 -11 -14 -58 -77 -104 -140 -47 -63 -91 -123 -100 -132 -8 -9 -23
-29 -32 -45 -10 -15 -31 -44 -46 -63 -16 -19 -32 -39 -36 -45 -41 -57 -237
-320 -272 -365 -25 -32 -99 -131 -165 -220 l-120 -162 -3 2106 -2 2106 -585 0
-585 0 2 -4192z"/>
</g>
</svg>
